<svg width="27" height="19" viewBox="0 0 27 19" fill="none" xmlns="http://www.w3.org/2000/svg">
<path d="M18.7083 18V3.5M18.7083 18H20.2708M18.7083 18H10.5M1 3.5V2C1 1.44772 1.44772 1 2 1H18.7083H25C25.5523 1 26 1.44772 26 2V3.5M1 3.5V17C1 17.5523 1.44772 18 2 18H3.60417M1 3.5H3.60417M3.60417 3.5V18M3.60417 3.5H9M3.60417 18H9M18.7083 3.5H20.2708M18.7083 3.5H10.5M20.2708 3.5V18M20.2708 3.5H26M20.2708 18H25C25.5523 18 26 17.5523 26 17V3.5M9 3.5V18M9 3.5H10.5M9 18H10.5M10.5 18V3.5" stroke="#D0FFF7"/>
</svg>
