<svg width="22" height="17" viewBox="0 0 22 17" fill="none" xmlns="http://www.w3.org/2000/svg">
<path d="M21.5 8.5C21.5 8.49997 21.5 8.50028 21.5 8.50094C21.4999 8.50193 21.4998 8.50374 21.4995 8.5064C21.499 8.51082 21.4981 8.51724 21.4963 8.52579C21.4926 8.54315 21.486 8.56713 21.4745 8.5981C21.4512 8.66093 21.4117 8.74196 21.3509 8.84061C21.2288 9.0386 21.038 9.27984 20.7762 9.55054C20.2537 10.0907 19.483 10.7128 18.5176 11.3022C16.5855 12.4818 13.9247 13.5 11 13.5C8.07526 13.5 5.4145 12.4818 3.48238 11.3022C2.517 10.7128 1.74632 10.0907 1.22383 9.55054C0.962001 9.27984 0.771155 9.0386 0.649104 8.84061C0.588289 8.74196 0.548836 8.66093 0.525491 8.5981C0.513987 8.56713 0.507357 8.54315 0.503725 8.52579C0.501938 8.51724 0.500987 8.51082 0.500493 8.5064C0.499998 8.50199 0.5 8.49992 0.5 8.5C0.5 8.50008 0.499998 8.49801 0.500493 8.4936C0.500987 8.48918 0.501938 8.48276 0.503725 8.47421C0.507357 8.45685 0.513987 8.43287 0.525491 8.4019C0.548836 8.33907 0.588289 8.25804 0.649104 8.15939C0.771155 7.9614 0.962001 7.72016 1.22383 7.44946C1.74632 6.90927 2.517 6.28724 3.48238 5.69783C5.4145 4.51818 8.07526 3.5 11 3.5C13.9247 3.5 16.5855 4.51818 18.5176 5.69783C19.483 6.28724 20.2537 6.90927 20.7762 7.44946C21.038 7.72016 21.2288 7.9614 21.3509 8.15939C21.4117 8.25804 21.4512 8.33907 21.4745 8.4019C21.486 8.43287 21.4926 8.45685 21.4963 8.47421C21.4981 8.48276 21.499 8.48918 21.4995 8.4936C21.5 8.49801 21.5 8.50008 21.5 8.5Z" stroke="#D0FFF7"/>
<circle cx="11.45" cy="8.45" r="2.95" stroke="#D0FFF7"/>
<rect x="19.3086" y="0.30494" width="0.43125" height="22.6327" rx="0.215625" transform="rotate(45 19.3086 0.30494)" stroke="#D0FFF7" stroke-width="0.43125"/>
</svg>
