<svg width="19" height="19" viewBox="0 0 19 19" fill="none" xmlns="http://www.w3.org/2000/svg">
<path d="M5 1H2C1.44772 1 1 1.44772 1 2V17.5C1 18.0523 1.44772 18.5 2 18.5H3.5M5 1V6C5 6.55228 5.44772 7 6 7H13C13.5523 7 14 6.55228 14 6V1M5 1H14M14 1H14.5858C14.851 1 15.1054 1.10536 15.2929 1.29289L18.2071 4.20711C18.3946 4.39464 18.5 4.649 18.5 4.91421V17.5C18.5 18.0523 18.0523 18.5 17.5 18.5H15.5M15.5 18.5V11C15.5 10.4477 15.0523 10 14.5 10H4.5C3.94772 10 3.5 10.4477 3.5 11V18.5M15.5 18.5H3.5" stroke="#D0FFF7"/>
</svg>
