<svg width="22" height="11" viewBox="0 0 22 11" fill="none" xmlns="http://www.w3.org/2000/svg">
<path d="M21.5 5.5C21.5 5.49992 21.5 5.50199 21.4995 5.5064C21.499 5.51082 21.4981 5.51724 21.4963 5.52579C21.4926 5.54315 21.486 5.56713 21.4745 5.5981C21.4512 5.66093 21.4117 5.74196 21.3509 5.84061C21.2288 6.0386 21.038 6.27984 20.7762 6.55054C20.2537 7.09073 19.483 7.71276 18.5176 8.30217C16.5855 9.48182 13.9247 10.5 11 10.5C8.07526 10.5 5.4145 9.48182 3.48238 8.30217C2.517 7.71276 1.74632 7.09073 1.22383 6.55054C0.962001 6.27984 0.771155 6.0386 0.649104 5.84061C0.588289 5.74196 0.548836 5.66093 0.525491 5.5981C0.513987 5.56713 0.507357 5.54315 0.503725 5.52579C0.501938 5.51724 0.500987 5.51082 0.500493 5.5064C0.499998 5.50199 0.5 5.49992 0.5 5.5C0.5 5.50008 0.499998 5.49801 0.500493 5.4936C0.500987 5.48918 0.501938 5.48276 0.503725 5.47421C0.507357 5.45685 0.513987 5.43287 0.525491 5.4019C0.548836 5.33907 0.588289 5.25804 0.649104 5.15939C0.771155 4.9614 0.962001 4.72016 1.22383 4.44946C1.74632 3.90927 2.517 3.28724 3.48238 2.69783C5.4145 1.51818 8.07526 0.5 11 0.5C13.9247 0.5 16.5855 1.51818 18.5176 2.69783C19.483 3.28724 20.2537 3.90927 20.7762 4.44946C21.038 4.72016 21.2288 4.9614 21.3509 5.15939C21.4117 5.25804 21.4512 5.33907 21.4745 5.4019C21.486 5.43287 21.4926 5.45685 21.4963 5.47421C21.4981 5.48276 21.499 5.48918 21.4995 5.4936C21.5 5.49801 21.5 5.50008 21.5 5.5Z" stroke="#D0FFF7"/>
<circle cx="11.45" cy="5.45" r="2.95" stroke="#D0FFF7"/>
</svg>
