<svg width="22" height="19" viewBox="0 0 22 19" fill="none" xmlns="http://www.w3.org/2000/svg">
<path d="M18.847 14.6373L18.7269 14.5H18.5H6C5.72386 14.5 5.5 14.2761 5.5 14V4C5.5 3.72386 5.72386 3.5 6 3.5H21C21.2761 3.5 21.5 3.72386 21.5 4V16.8888C21.4071 16.7293 21.2854 16.588 21.1408 16.4724L18.847 14.6373Z" stroke="white"/>
<path d="M3.15296 11.6373L3.27312 11.5H3.5H16C16.2761 11.5 16.5 11.2761 16.5 11V1C16.5 0.723858 16.2761 0.5 16 0.5H1C0.723858 0.5 0.5 0.723858 0.5 1V13.8888C0.592899 13.7293 0.71459 13.588 0.859159 13.4724L3.15296 11.6373Z" stroke="white"/>
<rect x="6" y="4" width="12" height="8" fill="#142B36"/>
<rect x="8.25" y="7.25" width="10.5" height="0.5" rx="0.25" fill="white" stroke="white" stroke-width="0.5"/>
<rect x="8.25" y="10.25" width="9.5" height="0.5" rx="0.25" fill="white" stroke="white" stroke-width="0.5"/>
</svg>
