<svg width="17" height="17" viewBox="0 0 17 17" fill="none" xmlns="http://www.w3.org/2000/svg">
<path d="M5.24765 7.30796L10.8445 1.71107C11.2366 1.319 11.8728 1.32078 12.2627 1.71503L15.7946 5.28664C16.1838 5.68024 16.1792 6.31516 15.7844 6.70311L10.1644 12.2247M5.24765 7.30796L10.1644 12.2247M5.24765 7.30796L3.9572 8.59842M10.1644 12.2247L8.91554 13.5568M8.91554 13.5568L8.37307 14.1354C7.9867 14.5476 7.32891 14.5511 6.92945 14.1516V14.1516M8.91554 13.5568L3.9572 8.59842M3.9572 8.59842L3.37384 9.18178C2.98332 9.57231 2.98332 10.2055 3.37384 10.596L3.4336 10.6558M3.4336 10.6558L1 16M3.4336 10.6558L6.92945 14.1516M1 16L6.92945 14.1516M1 16H16" stroke="#929292"/>
</svg>
